<svg width="24" height="25" viewBox="0 0 24 25" fill="none" 
    xmlns="http://www.w3.org/2000/svg">
    <g clip-path="url(#clip0)">
        <path d="M14.12 14.2394C13.8454 14.5342 13.5141 14.7706 13.1462 14.9345C12.7782 15.0985 12.3809 15.1867 11.9781 15.1938C11.5753 15.2009 11.1752 15.1268 10.8016 14.9759C10.4281 14.825 10.0887 14.6004 9.80385 14.3156C9.51897 14.0307 9.29439 13.6914 9.14351 13.3178C8.99262 12.9442 8.91853 12.5441 8.92563 12.1413C8.93274 11.7385 9.02091 11.3413 9.18488 10.9733C9.34884 10.6053 9.58525 10.2741 9.88 9.99941M17.94 18.0594C16.2306 19.3624 14.1491 20.0843 12 20.1194C5 20.1194 1 12.1194 1 12.1194C2.24389 9.80131 3.96914 7.77602 6.06 6.17941L17.94 18.0594ZM9.9 4.35941C10.5883 4.19829 11.2931 4.11775 12 4.11941C19 4.11941 23 12.1194 23 12.1194C22.393 13.255 21.6691 14.3241 20.84 15.3094L9.9 4.35941Z" stroke="#4F4F4F" stroke-width="2" stroke-linecap="round" stroke-linejoin="round"/>
        <path d="M1 1.11938L23 23.1194" stroke="#4F4F4F" stroke-width="2" stroke-linecap="round" stroke-linejoin="round"/>
    </g>
    <defs>
        <clipPath id="clip0">
            <rect width="24" height="24" fill="white" transform="translate(0 0.119385)"/>
        </clipPath>
    </defs>
</svg>
